<svg width="91" height="36" viewBox="0 0 91 36" fill="none" xmlns="http://www.w3.org/2000/svg">
<path d="M21.147 14.8203H16.4808C16.3956 14.2166 16.2216 13.6804 15.9588 13.2116C15.696 12.7358 15.3587 12.331 14.9467 11.9972C14.5348 11.6634 14.0589 11.4077 13.5192 11.2301C12.9865 11.0526 12.4077 10.9638 11.7827 10.9638C10.6534 10.9638 9.66974 11.2443 8.83168 11.8054C7.99361 12.3594 7.34375 13.169 6.8821 14.2344C6.42045 15.2926 6.18963 16.5781 6.18963 18.0909C6.18963 19.6463 6.42045 20.9531 6.8821 22.0114C7.35085 23.0696 8.00426 23.8686 8.84233 24.4084C9.6804 24.9482 10.6499 25.218 11.7507 25.218C12.3686 25.218 12.9403 25.1364 13.4659 24.973C13.9986 24.8097 14.4709 24.5717 14.8828 24.2592C15.2947 23.9396 15.6357 23.5526 15.9055 23.098C16.1825 22.6435 16.3743 22.125 16.4808 21.5426L21.147 21.5639C21.0263 22.5653 20.7244 23.5312 20.2415 24.4616C19.7656 25.3849 19.1229 26.2124 18.3132 26.9439C17.5107 27.6683 16.5518 28.2436 15.4368 28.6697C14.3288 29.0888 13.0753 29.2983 11.6761 29.2983C9.73011 29.2983 7.99006 28.858 6.45597 27.9773C4.92898 27.0966 3.72159 25.8217 2.83381 24.1527C1.95312 22.4837 1.51278 20.4631 1.51278 18.0909C1.51278 15.7116 1.96023 13.6875 2.85511 12.0185C3.75 10.3494 4.96449 9.07812 6.49858 8.20455C8.03267 7.32386 9.75852 6.88352 11.6761 6.88352C12.9403 6.88352 14.1122 7.06108 15.1918 7.41619C16.2784 7.77131 17.2408 8.28977 18.0788 8.97159C18.9169 9.64631 19.5987 10.4737 20.1243 11.4538C20.657 12.4339 20.9979 13.5561 21.147 14.8203ZM28.908 19.5398V29H24.3697V7.18182H28.7802V15.5234H28.9719C29.3413 14.5575 29.9379 13.8011 30.7617 13.2543C31.5856 12.7003 32.619 12.4233 33.8619 12.4233C34.9982 12.4233 35.989 12.6719 36.8342 13.169C37.6864 13.6591 38.3469 14.3658 38.8157 15.2891C39.2915 16.2053 39.5259 17.3026 39.5188 18.581V29H34.9805V19.3906C34.9876 18.3821 34.7319 17.5973 34.2134 17.0362C33.7021 16.4751 32.9847 16.1946 32.0614 16.1946C31.4435 16.1946 30.8967 16.326 30.4208 16.5888C29.9521 16.8516 29.5827 17.2351 29.3129 17.7393C29.0501 18.2365 28.9151 18.8366 28.908 19.5398Z" fill="#22309B"/>
<path d="M47.7566 29.3089C46.7125 29.3089 45.7821 29.1278 44.9654 28.7656C44.1486 28.3963 43.5023 27.853 43.0265 27.1357C42.5577 26.4112 42.3233 25.5092 42.3233 24.4297C42.3233 23.5206 42.4902 22.7571 42.824 22.1392C43.1578 21.5213 43.6124 21.0241 44.1877 20.6477C44.763 20.2713 45.4164 19.9872 46.1479 19.7955C46.8865 19.6037 47.6607 19.4688 48.4703 19.3906C49.4221 19.2912 50.1891 19.1989 50.7715 19.1136C51.3539 19.0213 51.7765 18.8864 52.0392 18.7088C52.302 18.5312 52.4334 18.2685 52.4334 17.9205V17.8565C52.4334 17.1818 52.2203 16.6598 51.7942 16.2905C51.3752 15.9212 50.7786 15.7365 50.0044 15.7365C49.1877 15.7365 48.5378 15.9176 48.0549 16.2798C47.5719 16.6349 47.2523 17.0824 47.0961 17.6222L42.8986 17.2812C43.1117 16.2869 43.5307 15.4276 44.1557 14.7031C44.7807 13.9716 45.5868 13.4105 46.574 13.0199C47.5684 12.6222 48.7189 12.4233 50.0257 12.4233C50.9348 12.4233 51.8049 12.5298 52.6358 12.7429C53.4739 12.956 54.2161 13.2862 54.8624 13.7337C55.5158 14.1811 56.0307 14.7564 56.4071 15.4595C56.7836 16.1555 56.9718 16.9901 56.9718 17.9631V29H52.6678V26.7308H52.54C52.2772 27.2422 51.9256 27.6932 51.4853 28.0838C51.0449 28.4673 50.5158 28.7692 49.8979 28.9893C49.28 29.2024 48.5662 29.3089 47.7566 29.3089ZM49.0563 26.1768C49.7239 26.1768 50.3134 26.0455 50.8248 25.7827C51.3361 25.5128 51.7374 25.1506 52.0286 24.696C52.3198 24.2415 52.4654 23.7266 52.4654 23.1513V21.4148C52.3233 21.5071 52.128 21.5923 51.8794 21.6705C51.638 21.7415 51.3645 21.8089 51.0591 21.8729C50.7537 21.9297 50.4483 21.983 50.1429 22.0327C49.8375 22.0753 49.5605 22.1143 49.312 22.1499C48.7793 22.228 48.3141 22.3523 47.9164 22.5227C47.5186 22.6932 47.2097 22.924 46.9895 23.2152C46.7694 23.4993 46.6593 23.8544 46.6593 24.2805C46.6593 24.8984 46.883 25.3707 47.3304 25.6974C47.785 26.017 48.3603 26.1768 49.0563 26.1768ZM69.1966 12.6364V16.0455H59.3422V12.6364H69.1966ZM61.5794 8.71591H66.1177V23.9716C66.1177 24.3906 66.1816 24.7173 66.3095 24.9517C66.4373 25.179 66.6149 25.3388 66.8422 25.4311C67.0765 25.5234 67.3464 25.5696 67.6518 25.5696C67.8649 25.5696 68.0779 25.5518 68.291 25.5163C68.5041 25.4737 68.6674 25.4418 68.7811 25.4205L69.4949 28.7976C69.2676 28.8686 68.948 28.9503 68.536 29.0426C68.1241 29.142 67.6234 29.2024 67.0339 29.2237C65.9402 29.2663 64.9814 29.1207 64.1575 28.7869C63.3407 28.4531 62.7051 27.9347 62.2505 27.2315C61.796 26.5284 61.5723 25.6406 61.5794 24.5682V8.71591ZM80.8567 12.6364V16.0455H71.0023V12.6364H80.8567ZM73.2395 8.71591H77.7779V23.9716C77.7779 24.3906 77.8418 24.7173 77.9696 24.9517C78.0975 25.179 78.275 25.3388 78.5023 25.4311C78.7367 25.5234 79.0066 25.5696 79.312 25.5696C79.525 25.5696 79.7381 25.5518 79.9512 25.5163C80.1642 25.4737 80.3276 25.4418 80.4412 25.4205L81.155 28.7976C80.9277 28.8686 80.6081 28.9503 80.1962 29.0426C79.7843 29.142 79.2836 29.2024 78.6941 29.2237C77.6003 29.2663 76.6415 29.1207 75.8176 28.7869C75.0009 28.4531 74.3652 27.9347 73.9107 27.2315C73.4561 26.5284 73.2324 25.6406 73.2395 24.5682V8.71591ZM86.4657 29.277C85.7626 29.277 85.1589 29.0284 84.6547 28.5312C84.1575 28.027 83.9089 27.4233 83.9089 26.7202C83.9089 26.0241 84.1575 25.4276 84.6547 24.9304C85.1589 24.4332 85.7626 24.1847 86.4657 24.1847C87.1475 24.1847 87.7441 24.4332 88.2555 24.9304C88.7669 25.4276 89.0225 26.0241 89.0225 26.7202C89.0225 27.1889 88.9018 27.6186 88.6603 28.0092C88.426 28.3928 88.117 28.7017 87.7335 28.9361C87.35 29.1634 86.9274 29.277 86.4657 29.277Z" fill="#727070"/>
</svg>
